SplineFontDB: 3.0
FontName: BulmerStM
FullName: Sorts Mill Bulmer
FamilyName: Sorts Mill Bulmer
Weight: Regular
Copyright: Created by trashman with FontForge 2.0 (http://fontforge.sf.net)
UComments: "2011-1-31: Created." 
Version: 0.1
ItalicAngle: 0
UnderlinePosition: -100
UnderlineWidth: 50
Ascent: 800
Descent: 200
LayerCount: 3
Layer: 0 0 "Back"  1
Layer: 1 0 "Fore"  0
Layer: 2 0 "backup"  0
NeedsXUIDChange: 1
XUID: [1021 658 797806517 5297306]
FSType: 0
OS2Version: 0
OS2_WeightWidthSlopeOnly: 0
OS2_UseTypoMetrics: 1
CreationTime: 1296525662
ModificationTime: 1296640963
OS2TypoAscent: 0
OS2TypoAOffset: 1
OS2TypoDescent: 0
OS2TypoDOffset: 1
OS2TypoLinegap: 90
OS2WinAscent: 0
OS2WinAOffset: 1
OS2WinDescent: 0
OS2WinDOffset: 1
HheadAscent: 0
HheadAOffset: 1
HheadDescent: 0
HheadDOffset: 1
OS2Vendor: 'PfEd'
MarkAttachClasses: 1
DEI: 91125
Encoding: UnicodeBmp
UnicodeInterp: none
NameList: Adobe Glyph List
DisplaySize: -48
AntiAlias: 1
FitToEm: 1
WinInfo: 72 12 6
BeginPrivate: 8
BlueValues 7 [-18 0]
BlueFuzz 1 0
BlueScale 8 0.039625
BlueShift 1 7
StdHW 4 [44]
StemSnapH 32 [11 27 31 37 44 48 52 60 91 113]
StdVW 4 [85]
StemSnapV 14 [80 85 90 168]
EndPrivate
BeginChars: 65536 63

StartChar: a
Encoding: 97 97 0
Width: 395
VWidth: 0
Flags: HW
HStem: -10 56<100.5 191.887 342.42 375.994> -9 45<322.222 373.851> 206 20<199.174 239> 361 23<131.12 212.636>
VStem: 37 83<59.0669 139.27 282.93 350.294> 239 82<59.8898 206 222.719 340.907>
LayerCount: 3
Fore
SplineSet
371 50 m 0x7c
 378 50 385 41 385 32 c 0
 385 5 345 -9 325 -9 c 0x7c
 265 -9 250 27 236 48 c 1
 208 22 174 -10 128 -10 c 0xbc
 73 -10 37 29 37 74 c 0
 37 145 106 196 173 214 c 0
 190 219 207 221 239 226 c 1
 239 279 l 2
 239 324 226 361 172 361 c 0
 147 361 123 355 119 328 c 0
 117 309 112 277 75 277 c 0
 53 277 38 292 38 313 c 0
 38 360 115 384 165 384 c 0
 207 384 246 377 274 361 c 0
 320 334 321 304 321 247 c 2
 321 84 l 2
 321 57 322 36 342 36 c 0
 351 36 358 42 363 47 c 0
 365 49 368 50 371 50 c 0x7c
180 46 m 0xbc
 212 46 239 75 239 94 c 2
 239 206 l 1
 176 195 120 168 120 113 c 0
 120 77 139 46 180 46 c 0xbc
EndSplineSet
EndChar

StartChar: b
Encoding: 98 98 1
Width: 470
VWidth: 0
Flags: W
HStem: -12 37<195.621 309.064> -3 40<21.0323 75.7963> 357 31<210.587 310.166>
VStem: 78 80<61.856 305.09 337.018 599.199> 361 98<97.1368 279.209>
LayerCount: 3
Fore
SplineSet
162 136 m 2xb8
 162 71 187 25 255 25 c 0
 353 25 361 145 361 214 c 0
 361 286 330 357 262 357 c 0
 189 357 162 292 162 217 c 2
 162 136 l 2xb8
92 -2 m 0
 85 -2 63 -3 56 -3 c 0
 38 -3 21 2 21 16 c 0
 21 35 32 36 55 37 c 0x78
 74 38 76 48 76 64 c 0
 76 217 78 378 78 531 c 0
 78 553 76 562 75 577 c 0
 71 617 25 588 25 621 c 0
 25 634 33 639 54 641 c 0
 90 644 107 654 140 654 c 0
 162 654 167 641 167 618 c 0
 167 592 158 468 158 394 c 0
 158 361 160 337 165 337 c 1
 191 370 227 388 277 388 c 0
 379 388 459 288 459 190 c 0
 459 66 358 -12 256 -12 c 0xb8
 188 -12 175 29 167 29 c 0
 159 29 160 1 156 -3 c 0x78
 152 -7 151 -7 146 -7 c 0
 126 -7 114 -2 92 -2 c 0
EndSplineSet
Validated: 1
EndChar

StartChar: h
Encoding: 104 104 2
Width: 510
VWidth: 0
Flags: W
HStem: -4 46<25.0657 77.9516 172.322 221.828 426.458 483.87> 350 33<231.271 318.637> 608 47<36.4048 92.8926>
VStem: 78 93<42.2676 312.649> 94 87<340.969 636.275> 340.222 83.7778<42.2614 333.966>
LayerCount: 3
Fore
SplineSet
311 1 m 0xf4
 296 1 280 7 280 22 c 0
 280 53 330 27 334 53 c 0
 339.333333333 90.3333333333 340.222222222 132.555555556 340.222222222 173.740740741 c 0
 340.222222222 194.333333333 340 214.666666667 340 234 c 0
 340 295 332 350 282 350 c 0
 232 350 192 336 180 298 c 0
 176 286 172 265 172 249 c 0
 172 198 171 142 171 85 c 0
 171 63 174 40 190 40 c 0
 208 40 222 35 222 23 c 0
 222 7 219 1 197 1 c 0
 122 1 108 -4 53 -4 c 0
 35 -4 25 2 25 18 c 0
 25 37 34 42 58 42 c 0
 74 42 77 43 78 54 c 0xf4
 83 128 94 473 94 564 c 0xec
 94 583 93 608 78 608 c 0xf4
 75 608 64 606 54 606 c 0
 39 606 32 609 32 623 c 0
 32 633 41 638 51 639 c 0
 108 647 119 655 161 655 c 0
 172 655 181 652 181 622 c 0xec
 181 596 171 448 171 356 c 0
 171 343 174 325 182 332 c 0
 208 358 246 383 309 383 c 0
 359 383 414 349 422 309 c 0
 424 299 427 288 427 274 c 0
 427 224 424 162 424 114 c 0
 424 96 425 81 426 68 c 0
 428 50 429 42 445 42 c 0
 464 42 484 37 484 18 c 0
 484 4 470 0 454 0 c 0
 409 0 355 1 311 1 c 0xf4
EndSplineSet
Validated: 1
EndChar

StartChar: c
Encoding: 99 99 3
Width: 432
VWidth: -5
Flags: HW
HStem: -10 47<188.876 318.97> 366 24<206.427 297.652>
VStem: 37 94<100.614 267.068> 316 72<266.675 352.306>
LayerCount: 3
Fore
SplineSet
245 390 m 0
 307 390 388 368 388 304 c 0
 388 277 371 263 347 263 c 0
 329 263 316 278 316 296 c 0
 316 304 318 315 318 324 c 0
 318 348 288 366 254 366 c 0
 174 366 131 289 131 189 c 0
 131 106 178 37 252 37 c 0
 283 37 321 45 344 80 c 0
 351 91 360 107 370 107 c 0
 381 107 386 99 386 91 c 0
 386 86 385 81 383 77 c 0
 365 31 303 -10 229 -10 c 0
 119 -10 37 69 37 189 c 0
 37 280 133 390 245 390 c 0
EndSplineSet
EndChar

StartChar: d
Encoding: 100 100 4
Width: 506
VWidth: -1
Flags: HW
HStem: -10 38<190.936 293.669> 6 34<434.175 486.395> 355 27<202.585 298.939> 610 36<285.099 345.264>
VStem: 45 86<90.9832 278.583> 350 76<63.388 324.043 332 610>
LayerCount: 3
Fore
SplineSet
304 610 m 2xbc
 296 610 287 613 285 626 c 0
 283 638 292 646 303 646 c 0
 338 646 399 659 411 659 c 0
 422 659 432 655 432 643 c 0
 432 606 426 537 426 458 c 2
 426 190 l 2
 426 164 426 137 429 94 c 0
 430 75 431 44 449 40 c 0
 463 37 487 36 487 25 c 2
 487 22 l 2
 487 13 486 7 467 6 c 0x7c
 437 5 375 -5 371 -5 c 0
 356 -5 353 17 346 56 c 1
 330 26 278 -10 226 -10 c 0
 116 -10 45 59 45 183 c 0
 45 292 120 382 228 382 c 0
 282 382 329 362 350 332 c 1
 350 426 l 2
 350 489 348 573 347 586 c 0
 345 607 338 610 330 610 c 2
 304 610 l 2xbc
246 28 m 0xbc
 334 28 350 83 350 178 c 2
 350 256 l 2
 350 310 326 355 246 355 c 0
 171 355 131 266 131 178 c 0
 131 93 181 28 246 28 c 0xbc
EndSplineSet
EndChar

StartChar: e
Encoding: 101 101 5
Width: 407
VWidth: 0
Flags: HW
HStem: -14 53<187.238 303.73> 231 35<135 289.974> 358 30<176.278 262.756>
VStem: 34 90<108.534 232.502> 290 77<266 325.037>
LayerCount: 3
Fore
SplineSet
212 -14 m 0
 104 -14 34 69 34 175 c 0
 34 285 107 388 223 388 c 0
 292 388 367 337 367 254 c 0
 367 233 355 231 345 231 c 0
 331 231 262 233 126 235 c 1
 124 222 124 213 124 198 c 0
 124 107 182 39 247 39 c 0
 290 39 318 60 335 88 c 0
 343 101 346 117 358 117 c 0
 371 117 375 106 375 95 c 0
 375 78 361 56 354 48 c 0
 320 7 269 -14 212 -14 c 0
288 266 m 1
 289 273 290 279 290 285 c 0
 290 331 256 358 221 358 c 0
 176 358 142 321 135 261 c 1
 195 261 257 265 288 266 c 1
EndSplineSet
EndChar

StartChar: f
Encoding: 102 102 6
Width: 282
VWidth: 3
Flags: HWO
HStem: -1 36<44.0203 88.8914 176.047 236.979> 329 35<47.1355 93 175 243.996> 620 25<218.778 273.446>
VStem: 93 82<35 329 364 557.548> 273 88<541.481 619.756>
LayerCount: 3
Fore
SplineSet
317 535 m 0
 285 535 273 555 273 580 c 0
 273 590 274 599 274 606 c 0
 274 615 271 620 258 620 c 0
 165 620 177 480 175 364 c 1
 231 364 l 2
 238 364 244 359 244 347 c 0
 244 332 238 329 217 329 c 2
 175 329 l 1
 175 250 175 114 176 56 c 0
 176 38 180 35 190 35 c 0
 230 34 237 34 237 16 c 0
 237 2 232 -1 221 -1 c 0
 174 -1 183 1 134 1 c 0
 86 1 64 -1 59 -1 c 0
 51 -1 44 0 44 15 c 0
 44 30 45 35 62 35 c 2
 80 35 l 2
 88 35 87 36 88 43 c 0
 93 89 94 177 94 246 c 0
 94 278 93 304 93 329 c 1
 62 329 l 2
 59 329 47 330 47 342 c 0
 47 357 49 364 64 364 c 0
 65 364 66 364 67 364 c 2
 93 362 l 1
 93 455 l 2
 93 569 155 645 268 645 c 0
 321 645 361 622 361 583 c 0
 361 554 341 535 317 535 c 0
EndSplineSet
EndChar

StartChar: g
Encoding: 103 103 7
Width: 468
VWidth: 0
Flags: W
HStem: -270 41<158.164 326.229> -59 91<153.25 353.625> 352 27<174.221 242.488 321.29 397.5>
VStem: 50 72<-196.868 -81.7183> 53 88<163.466 312.204> 142 8<66 106> 268 83<158.609 301.392> 375 63<-188.685 -81.2267>
LayerCount: 3
Fore
SplineSet
211 101 m 0xef
 182 99 150 96 150 66 c 0
 150 37 186 32 222 32 c 2
 294 32 l 2
 382 32 438 -5 438 -104 c 0
 438 -224 338 -270 241 -270 c 0
 145 -270 50 -231 50 -134 c 0xf7
 50 -80 90 -43 127 -40 c 0
 134 -39 137 -37 129 -30 c 0
 111 -15 101 8 101 35 c 0
 101 80 142 100 142 106 c 0
 142 114 53 136 53 239 c 0
 53 325 126 379 210 379 c 0
 250 379 285 351 294 351 c 0
 302 351 336 385 378 385 c 0
 417 385 437 370 437 329 c 0
 437 310 432 296 410 296 c 0
 386 296 372 315 364 338 c 0
 363 342 355 350 350 350 c 0
 338 350 315 339 315 330 c 0
 315 322 351 278 351 230 c 0
 351 152 293 108 211 101 c 0xef
268 228 m 0
 268 283 263 352 210 352 c 0
 152 352 141 284 141 216 c 0xef
 141 171 157 127 205 127 c 0
 253 127 268 176 268 228 c 0
122 -142 m 0xf7
 122 -202 175 -229 236 -229 c 0
 300 -229 375 -206 375 -131 c 0
 375 -68 319 -59 258 -59 c 2
 205 -59 l 1
 147 -70 122 -85 122 -142 c 0xf7
EndSplineSet
Validated: 1
EndChar

StartChar: i
Encoding: 105 105 8
Width: 268
VWidth: 0
Flags: W
HStem: 0 40<40.0379 93.9531 190.001 249.851> 338 35<45.0117 97.874> 545 113<99.9969 188.164>
VStem: 88 111<557.047 646.239> 102 87<40.439 336.111>
LayerCount: 3
Fore
SplineSet
145 658 m 0xf0
 172 658 199 638 199 604 c 0
 199 567 174 545 147 545 c 0
 115 545 88 566 88 601 c 0
 88 634 113 658 145 658 c 0xf0
74 338 m 0
 60 338 45 342 45 355 c 0
 45 362 49 370 56 373 c 0
 57 373 100 374 108 374 c 0
 114 374 164 380 172 380 c 0
 191 380 192 371 192 353 c 0
 192 257 189 217 189 108 c 0
 189 100 189 67 190 60 c 0
 192 42 192 40 202 40 c 2
 217 40 l 2
 239 40 250 34 250 17 c 0
 250 4 242 0 221 0 c 2
 116 0 l 2
 102 0 86 -2 72 -2 c 0
 53 -2 40 2 40 19 c 0
 40 31 48 39 62 39 c 0
 71 39 82 37 89 37 c 0
 92 37 93 37 94 38 c 0
 99 44 101 80 101 98 c 0
 101 135 102 170 102 205 c 0xe8
 102 239 101 319 95 337 c 0
 94 338 79 338 74 338 c 0
EndSplineSet
Validated: 1
EndChar

StartChar: j
Encoding: 106 106 9
Width: 295
VWidth: 2
Flags: W
HStem: -238 33<-19.5 71.8089> 328 39<47.1399 94.6214> 331 53<57.8567 102.138> 545 113<99.9969 188.164>
VStem: -86 94<-204.453 -132.916> 88 111<557.047 646.239> 105 85<-155.222 330.994>
LayerCount: 3
Fore
SplineSet
145 658 m 0x9c
 172 658 199 638 199 604 c 0
 199 567 174 545 147 545 c 0
 115 545 88 566 88 601 c 0
 88 634 113 658 145 658 c 0x9c
174 384 m 0xba
 189 384 192 374 192 360 c 0
 192 351 190 294 190 204 c 0
 190 149 191 66 191 -47 c 0
 191 -174 127 -238 3 -238 c 0
 -42 -238 -86 -218 -86 -175 c 0
 -86 -142 -57 -122 -36 -122 c 0
 -10 -122 8 -150 8 -189 c 0
 8 -202 21 -205 33 -205 c 0
 79 -205 93 -163 99 -115 c 0
 105 -61 105 13 105 87 c 0
 105 170 105 253 102 313 c 0
 102 323 101 331 95 331 c 0xba
 87 331 74 328 63 328 c 0
 53 328 47 334 47 345 c 0
 47 363 59 363 80 367 c 0xda
 124 375 155 384 174 384 c 0xba
EndSplineSet
Validated: 1
EndChar

StartChar: k
Encoding: 107 107 10
Width: 479
VWidth: 0
Flags: W
HStem: -1 38<25.0464 78.2754 168.34 219.931 237.007 262.999 386.635 459.322> 153 59<167.133 200.317> 335 35<330.198 397.753> 605 35<21.0117 69.7555> 606 48<23.7656 78.1644>
VStem: 82 85<37.0009 152.991 212.01 596.604>
LayerCount: 3
Fore
SplineSet
249 369 m 0xec
 271 369 291 370 312 370 c 0
 328 370 343 369 362 369 c 0
 385 369 398 366 398 349 c 0
 398 338 376 335 375 335 c 0
 335 334 282 280 242 238 c 0
 236 232 230 228 230 217 c 0
 230 206 239 203 246 196 c 0
 296 148 377 48 414 40 c 0
 435 36 460 36 460 12 c 0
 460 -3 445 -5 428 -5 c 0
 384 -5 316 0 259 -0 c 0
 246 0 237 6 237 18 c 0
 237 27 245 36 255 37 c 0
 261 38 263 39 263 43 c 0
 263 61 185 153 178 153 c 0
 169 153 167 141 167 125 c 2
 167 78 l 2
 167 48 169 34 204 34 c 0
 212 34 220 27 220 19 c 0
 220 12 214 4 208 1 c 0
 205 0 204 0 189 -0 c 0
 135 0 78 0 39 -1 c 0
 31 -1 25 10 25 17 c 0
 25 34 41 37 58 37 c 2
 60 37 l 2
 68 37 78 37 78 44 c 0
 81 139 82 240 82 340 c 2
 82 473 l 2
 82 540 81 606 70 606 c 0xec
 65 606 46 605 42 605 c 0
 30 605 21 611 21 623 c 0
 21 639 37 638 54 640 c 0xf4
 83 644 121 654 148 654 c 0
 154 654 167 653 171 639 c 0
 172 633 173 611 173 598 c 0
 173 568 167 552 167 495 c 0
 167 409 166 324 166 238 c 0
 166 226 168 212 174 212 c 0
 187 212 254 292 264 304 c 0
 267 307 268 313 268 320 c 0
 268 338 229 337 229 356 c 0
 229 368 237 369 249 369 c 0xec
EndSplineSet
Validated: 1
EndChar

StartChar: l
Encoding: 108 108 11
Width: 290
VWidth: 0
Flags: W
HStem: 1 36<33.0326 102.865 197 268.851> 608 36<53.0462 113.152>
VStem: 103 94<38.1272 308.991> 114 90<327.25 607.998>
LayerCount: 3
Fore
SplineSet
102 608 m 0xd0
 93 608 83 605 74 605 c 0
 61 605 53 610 53 625 c 0
 53 641 69 644 80 644 c 0
 100 644 151 656 187 656 c 0
 199 656 204 646 204 629 c 0xd0
 204 606 199 567 198 350 c 2
 197 55 l 2
 197 40 198 38 211 38 c 2
 244 38 l 2
 262 38 269 35 269 16 c 2
 269 10 l 1
 266 2 252 -3 242 -3 c 0
 196 -3 187 1 152 1 c 2
 89 1 l 2
 74 1 63 0 53 -0 c 2
 45 0 l 1
 38 1 33 11 33 20 c 0
 33 36 43 37 59 37 c 2
 94 37 l 2
 102 37 102 41 103 57 c 0xe0
 111 203 113 457 114 581 c 1
 114 596 l 2
 114 605 113 608 102 608 c 0xd0
EndSplineSet
Validated: 1
EndChar

StartChar: m
Encoding: 109 109 12
Width: 918
VWidth: 0
Flags: HW
HStem: -2 44<28.2407 84.3634 177.461 229.897 269.011 317.185 410.936 462.723 503.066 554.105 646.469 703.985> 328 42<31.029 83.6538> 350 37<234.169 305.388 453.001 536.974>
VStem: 87 88<43.6106 307.591> 317 92<41.9954 310.024> 556 90<42.0647 335.779>
LayerCount: 3
Fore
SplineSet
296 387 m 0xbc
 365 387 398 328 404 328 c 0xdc
 410 328 440 387 528 387 c 0
 609 387 647 341 647 260 c 2
 646 83 l 2
 646 52 648 42 658 42 c 0
 661 42 664 42 667 42 c 0
 684 42 704 41 704 22 c 0
 704 5 703 -4 684 -4 c 0
 672.408203125 -4 615.219996896 -2 602 -2 c 0
 588.844761507 -2 540.955078125 -2 530 -2 c 0
 513 -2 503 4 503 22 c 0
 503 38 510 41 538 41 c 0
 549 41 547 43 549 46 c 0
 555 57 556 78 556 99 c 2
 556 276 l 2
 556 319.243086751 535.398319674 349.892978506 493.682649719 349.892978506 c 0
 461.634282131 349.892978506 442 329 420 311 c 1
 411 291 410 218 410 149 c 0
 410 138 409 117 409 98 c 0
 409 72 411 45 421 43 c 0
 438 39 468 45 468 22 c 0
 468 15 467 10 463 6 c 0
 457 0 457 0 413 -1 c 0
 376 -1 337 -2 302 -2 c 0
 284 -2 269 1 269 20 c 0
 269 34 278 42 299 42 c 0
 318 42 316 44 317 61 c 0
 321 116 322 176 322 228 c 0
 322 278 321 350 272 350 c 0xbc
 234 350 221 335 199 311 c 0
 182 292 175 211 175 139 c 0
 175 114 175 89 177 69 c 0
 179 45 180 45 202 43 c 0
 218 41 230 38 230 22 c 0
 230 8 221 -1 213 -1 c 2
 193 -1 l 2
 152 -1 107 -3 69 -3 c 0
 49 -3 28 2 28 23 c 0
 28 41.2874682568 42 42 56 42 c 0
 64 42 74 43 79 43 c 0
 84 43 85 67 85 88 c 0
 85 134 86 174 86 228 c 0
 86 240 87 256 87 271 c 0
 87 296 86 322 78 328 c 0xdc
 67 336 31 322 31 350 c 0xbc
 31 362 41 369 50 370 c 0xdc
 84 372 136 387 153 387 c 0
 186 387 164 332 182 332 c 0
 188 332 235 387 296 387 c 0xbc
EndSplineSet
Validated: 1
EndChar

StartChar: n
Encoding: 110 110 13
Width: 298
VWidth: 0
Flags: W
HStem: 220 168<95.6758 208.324>
VStem: 68 168<247.676 360.324>
LayerCount: 3
Fore
SplineSet
68 304 m 0
 68 350 106 388 152 388 c 0
 198 388 236 350 236 304 c 0
 236 258 198 220 152 220 c 0
 106 220 68 258 68 304 c 0
EndSplineSet
Validated: 1
EndChar

StartChar: o
Encoding: 111 111 14
Width: 298
VWidth: 0
Flags: W
HStem: 220 168<95.6758 208.324>
VStem: 68 168<247.676 360.324>
LayerCount: 3
Fore
SplineSet
68 304 m 0
 68 350 106 388 152 388 c 0
 198 388 236 350 236 304 c 0
 236 258 198 220 152 220 c 0
 106 220 68 258 68 304 c 0
EndSplineSet
Validated: 1
EndChar

StartChar: p
Encoding: 112 112 15
Width: 298
VWidth: 0
Flags: W
HStem: 220 168<95.6758 208.324>
VStem: 68 168<247.676 360.324>
LayerCount: 3
Fore
SplineSet
68 304 m 0
 68 350 106 388 152 388 c 0
 198 388 236 350 236 304 c 0
 236 258 198 220 152 220 c 0
 106 220 68 258 68 304 c 0
EndSplineSet
Validated: 1
EndChar

StartChar: q
Encoding: 113 113 16
Width: 298
VWidth: 0
Flags: W
HStem: 220 168<95.6758 208.324>
VStem: 68 168<247.676 360.324>
LayerCount: 3
Fore
SplineSet
68 304 m 0
 68 350 106 388 152 388 c 0
 198 388 236 350 236 304 c 0
 236 258 198 220 152 220 c 0
 106 220 68 258 68 304 c 0
EndSplineSet
Validated: 1
EndChar

StartChar: r
Encoding: 114 114 17
Width: 298
VWidth: 0
Flags: W
HStem: 220 168<95.6758 208.324>
VStem: 68 168<247.676 360.324>
LayerCount: 3
Fore
SplineSet
68 304 m 0
 68 350 106 388 152 388 c 0
 198 388 236 350 236 304 c 0
 236 258 198 220 152 220 c 0
 106 220 68 258 68 304 c 0
EndSplineSet
Validated: 1
EndChar

StartChar: s
Encoding: 115 115 18
Width: 298
VWidth: 0
Flags: W
HStem: 220 168<95.6758 208.324>
VStem: 68 168<247.676 360.324>
LayerCount: 3
Fore
SplineSet
68 304 m 0
 68 350 106 388 152 388 c 0
 198 388 236 350 236 304 c 0
 236 258 198 220 152 220 c 0
 106 220 68 258 68 304 c 0
EndSplineSet
Validated: 1
EndChar

StartChar: t
Encoding: 116 116 19
Width: 298
VWidth: 0
Flags: W
HStem: 220 168<95.6758 208.324>
VStem: 68 168<247.676 360.324>
LayerCount: 3
Fore
SplineSet
68 304 m 0
 68 350 106 388 152 388 c 0
 198 388 236 350 236 304 c 0
 236 258 198 220 152 220 c 0
 106 220 68 258 68 304 c 0
EndSplineSet
Validated: 1
EndChar

StartChar: u
Encoding: 117 117 20
Width: 298
VWidth: 0
Flags: W
HStem: 220 168<95.6758 208.324>
VStem: 68 168<247.676 360.324>
LayerCount: 3
Fore
SplineSet
68 304 m 0
 68 350 106 388 152 388 c 0
 198 388 236 350 236 304 c 0
 236 258 198 220 152 220 c 0
 106 220 68 258 68 304 c 0
EndSplineSet
Validated: 1
EndChar

StartChar: v
Encoding: 118 118 21
Width: 298
VWidth: 0
Flags: W
HStem: 220 168<95.6758 208.324>
VStem: 68 168<247.676 360.324>
LayerCount: 3
Fore
SplineSet
68 304 m 0
 68 350 106 388 152 388 c 0
 198 388 236 350 236 304 c 0
 236 258 198 220 152 220 c 0
 106 220 68 258 68 304 c 0
EndSplineSet
Validated: 1
EndChar

StartChar: w
Encoding: 119 119 22
Width: 298
VWidth: 0
Flags: W
HStem: 220 168<95.6758 208.324>
VStem: 68 168<247.676 360.324>
LayerCount: 3
Fore
SplineSet
68 304 m 0
 68 350 106 388 152 388 c 0
 198 388 236 350 236 304 c 0
 236 258 198 220 152 220 c 0
 106 220 68 258 68 304 c 0
EndSplineSet
Validated: 1
EndChar

StartChar: x
Encoding: 120 120 23
Width: 298
VWidth: 0
Flags: W
HStem: 220 168<95.6758 208.324>
VStem: 68 168<247.676 360.324>
LayerCount: 3
Fore
SplineSet
68 304 m 0
 68 350 106 388 152 388 c 0
 198 388 236 350 236 304 c 0
 236 258 198 220 152 220 c 0
 106 220 68 258 68 304 c 0
EndSplineSet
Validated: 1
EndChar

StartChar: y
Encoding: 121 121 24
Width: 298
VWidth: 0
Flags: W
HStem: 220 168<95.6758 208.324>
VStem: 68 168<247.676 360.324>
LayerCount: 3
Fore
SplineSet
68 304 m 0
 68 350 106 388 152 388 c 0
 198 388 236 350 236 304 c 0
 236 258 198 220 152 220 c 0
 106 220 68 258 68 304 c 0
EndSplineSet
Validated: 1
EndChar

StartChar: z
Encoding: 122 122 25
Width: 298
VWidth: 0
Flags: W
HStem: 220 168<95.6758 208.324>
VStem: 68 168<247.676 360.324>
LayerCount: 3
Fore
SplineSet
68 304 m 0
 68 350 106 388 152 388 c 0
 198 388 236 350 236 304 c 0
 236 258 198 220 152 220 c 0
 106 220 68 258 68 304 c 0
EndSplineSet
Validated: 1
EndChar

StartChar: zero
Encoding: 48 48 53
Width: 298
VWidth: 0
Flags: W
HStem: 220 168<95.6758 208.324>
VStem: 68 168<247.676 360.324>
LayerCount: 3
Fore
SplineSet
68 304 m 0
 68 350 106 388 152 388 c 0
 198 388 236 350 236 304 c 0
 236 258 198 220 152 220 c 0
 106 220 68 258 68 304 c 0
EndSplineSet
EndChar

StartChar: one
Encoding: 49 49 54
Width: 298
VWidth: 0
Flags: W
HStem: 220 168<95.6758 208.324>
VStem: 68 168<247.676 360.324>
LayerCount: 3
Fore
SplineSet
68 304 m 0
 68 350 106 388 152 388 c 0
 198 388 236 350 236 304 c 0
 236 258 198 220 152 220 c 0
 106 220 68 258 68 304 c 0
EndSplineSet
EndChar

StartChar: two
Encoding: 50 50 55
Width: 298
VWidth: 0
Flags: W
HStem: 220 168<95.6758 208.324>
VStem: 68 168<247.676 360.324>
LayerCount: 3
Fore
SplineSet
68 304 m 0
 68 350 106 388 152 388 c 0
 198 388 236 350 236 304 c 0
 236 258 198 220 152 220 c 0
 106 220 68 258 68 304 c 0
EndSplineSet
EndChar

StartChar: three
Encoding: 51 51 56
Width: 298
VWidth: 0
Flags: W
HStem: 220 168<95.6758 208.324>
VStem: 68 168<247.676 360.324>
LayerCount: 3
Fore
SplineSet
68 304 m 0
 68 350 106 388 152 388 c 0
 198 388 236 350 236 304 c 0
 236 258 198 220 152 220 c 0
 106 220 68 258 68 304 c 0
EndSplineSet
EndChar

StartChar: four
Encoding: 52 52 57
Width: 298
VWidth: 0
Flags: W
HStem: 220 168<95.6758 208.324>
VStem: 68 168<247.676 360.324>
LayerCount: 3
Fore
SplineSet
68 304 m 0
 68 350 106 388 152 388 c 0
 198 388 236 350 236 304 c 0
 236 258 198 220 152 220 c 0
 106 220 68 258 68 304 c 0
EndSplineSet
EndChar

StartChar: five
Encoding: 53 53 58
Width: 298
VWidth: 0
Flags: W
HStem: 220 168<95.6758 208.324>
VStem: 68 168<247.676 360.324>
LayerCount: 3
Fore
SplineSet
68 304 m 0
 68 350 106 388 152 388 c 0
 198 388 236 350 236 304 c 0
 236 258 198 220 152 220 c 0
 106 220 68 258 68 304 c 0
EndSplineSet
EndChar

StartChar: six
Encoding: 54 54 59
Width: 298
VWidth: 0
Flags: W
HStem: 220 168<95.6758 208.324>
VStem: 68 168<247.676 360.324>
LayerCount: 3
Fore
SplineSet
68 304 m 0
 68 350 106 388 152 388 c 0
 198 388 236 350 236 304 c 0
 236 258 198 220 152 220 c 0
 106 220 68 258 68 304 c 0
EndSplineSet
EndChar

StartChar: seven
Encoding: 55 55 60
Width: 298
VWidth: 0
Flags: W
HStem: 220 168<95.6758 208.324>
VStem: 68 168<247.676 360.324>
LayerCount: 3
Fore
SplineSet
68 304 m 0
 68 350 106 388 152 388 c 0
 198 388 236 350 236 304 c 0
 236 258 198 220 152 220 c 0
 106 220 68 258 68 304 c 0
EndSplineSet
EndChar

StartChar: eight
Encoding: 56 56 61
Width: 298
VWidth: 0
Flags: W
HStem: 220 168<95.6758 208.324>
VStem: 68 168<247.676 360.324>
LayerCount: 3
Fore
SplineSet
68 304 m 0
 68 350 106 388 152 388 c 0
 198 388 236 350 236 304 c 0
 236 258 198 220 152 220 c 0
 106 220 68 258 68 304 c 0
EndSplineSet
EndChar

StartChar: nine
Encoding: 57 57 62
Width: 298
VWidth: 0
Flags: W
HStem: 220 168<95.6758 208.324>
VStem: 68 168<247.676 360.324>
LayerCount: 3
Fore
SplineSet
68 304 m 0
 68 350 106 388 152 388 c 0
 198 388 236 350 236 304 c 0
 236 258 198 220 152 220 c 0
 106 220 68 258 68 304 c 0
EndSplineSet
EndChar
